{"accessors" : [{"bufferView" : 0, "byteOffset" : 0, "componentType" : 5123, "count" : 122100, "type" : "SCALAR", "max" : [20351], "min" : [0]}, {"bufferView" : 1, "byteOffset" : 0, "componentType" : 5126, "count" : 20352, "type" : "VEC3", "max" : [7.164999961853027, 6.435999870300293, 18.99799919128418], "min" : [-17.048999786376953, -5.789999961853027, 12.592000007629395], "name" : "POSITION"}], "asset" : {"generator" : "Aspose.3D 21.5.1", "version" : "2.0"}, "buffers" : [{"uri" : "data:application/octet-stream;base64,", "byteLength" : 1709408}], "bufferViews" : [{"buffer" : 0, "byteOffset" : 0, "byteLength" : 244200, "target" : 34963}, {"buffer" : 0, "byteOffset" : 244204, "byteLength" : 1465200, "byteStride" : 12, "target" : 34962}], "images" : [{"uri" : "data:image/png;base64,"}], "materials" : [{"pbrMetallicRoughness" : {"baseColorFactor" : [0.8, 0.8, 0.8, 1], "baseColorTexture" : {"index" : 0, "texCoord" : 0}, "metallicFactor" : 0, "roughnessFactor" : 0}, "emissiveFactor" : [0, 0, 0], "alphaMode" : "OPAQUE", "doubleSided" : false}], "meshes" : [{"primitives" : [{"attributes" : {"POSITION" : 1}, "indices" : 0, "material" : 0, "mode" : 4}]}], "nodes" : [{"mesh" : 0}], "samplers" : [{"magFilter" : 9729, "minFilter" : 9729, "wrapS" : 10497, "wrapT" : 10497}], "scene" : 0, "scenes" : [{"nodes" : [0]}], "textures" : [{"sampler" : 0, "source" : 0}]}